<?xml version="1.0" standalone="no"?>
<!DOCTYPE svg PUBLIC "-//W3C//DTD SVG 20010904//EN"
 "http://www.w3.org/TR/2001/REC-SVG-20010904/DTD/svg10.dtd">
<svg version="1.0" xmlns="http://www.w3.org/2000/svg"
 width="716.000000pt" height="716.000000pt" viewBox="0 0 716.000000 716.000000"
 preserveAspectRatio="xMidYMid meet">
<metadata>
Created by potrace 1.11, written by Peter Selinger 2001-2013
</metadata>
<g transform="translate(0.000000,716.000000) scale(0.100000,-0.100000)"
fill="#000000" stroke="none">
<path d="M3583 7138 c-1 -14 -59 -289 -99 -468 -14 -63 -27 -122 -29 -131 -2
-9 -12 -59 -24 -110 -19 -88 -23 -108 -37 -176 -7 -38 -93 -435 -155 -720 -31
-141 -49 -243 -45 -258 4 -16 25 -37 59 -58 28 -17 111 -71 184 -118 72 -48
140 -89 151 -91 12 -2 61 23 118 61 55 35 139 89 188 120 49 31 93 65 98 77 9
19 1 68 -37 244 -2 8 -17 80 -35 160 -17 80 -44 206 -61 281 -16 74 -32 148
-35 163 -8 44 -53 257 -64 301 -8 31 -97 448 -116 540 -34 164 -40 189 -50
192 -6 2 -11 -2 -11 -9z"/>
<path d="M1067 6097 c20 -33 181 -282 243 -377 39 -58 73 -112 78 -120 4 -8
34 -55 66 -105 32 -49 73 -112 91 -140 18 -27 77 -117 130 -200 54 -82 103
-159 109 -170 7 -11 47 -74 90 -140 44 -66 99 -151 124 -190 62 -96 157 -242
228 -350 32 -49 61 -94 63 -99 2 -5 29 -48 61 -95 31 -47 85 -131 121 -186 35
-55 67 -101 71 -103 5 -2 8 -8 8 -13 0 -5 27 -50 60 -99 33 -48 62 -101 64
-117 7 -38 55 41 -565 -913 -98 -151 -197 -304 -219 -340 -22 -36 -120 -186
-216 -335 -97 -148 -206 -316 -243 -373 -114 -179 -133 -208 -248 -387 -62
-96 -113 -179 -113 -184 0 -6 21 2 48 18 43 25 611 392 922 595 69 45 140 91
157 101 32 20 235 151 678 439 127 82 262 169 300 194 39 25 135 88 215 140
80 52 160 101 178 109 31 13 37 12 75 -11 39 -23 396 -253 725 -468 79 -51
151 -97 159 -103 37 -23 400 -258 573 -371 58 -37 114 -73 125 -80 11 -6 142
-90 290 -187 149 -97 293 -191 320 -207 28 -17 95 -60 150 -96 55 -36 109 -70
119 -76 36 -20 0 37 -724 1157 -147 228 -633 977 -692 1068 -168 258 -180 279
-174 308 5 26 27 63 214 349 81 124 142 218 243 374 35 55 96 150 136 210 144
223 228 353 278 431 29 44 96 148 149 230 207 318 539 832 563 873 14 24 23
45 21 47 -3 3 -49 -24 -104 -60 -54 -35 -121 -78 -149 -95 -27 -17 -167 -106
-310 -199 -143 -93 -332 -216 -420 -272 -88 -57 -225 -146 -305 -197 -80 -52
-167 -109 -195 -127 -27 -18 -185 -120 -350 -227 -165 -106 -324 -209 -354
-228 -30 -19 -111 -72 -180 -117 -87 -57 -135 -83 -156 -83 -21 0 -80 33 -205
114 -96 63 -242 158 -325 211 -82 53 -190 123 -240 155 -49 32 -133 86 -185
120 -52 34 -142 92 -200 130 -58 38 -121 79 -140 90 -19 11 -89 56 -155 100
-66 44 -142 93 -170 110 -27 17 -83 52 -122 78 -257 167 -428 278 -437 281 -6
2 -18 10 -27 17 -25 22 -312 204 -321 204 -5 0 -5 -6 -1 -13z"/>
<path d="M1810 3973 c-30 -7 -66 -15 -80 -18 -40 -8 -62 -13 -115 -25 -27 -6
-61 -14 -75 -16 -14 -3 -63 -14 -110 -24 -47 -10 -96 -21 -110 -24 -14 -2 -77
-16 -140 -30 -128 -28 -721 -155 -760 -162 -22 -5 -78 -17 -130 -29 -41 -10
-260 -55 -265 -55 -17 0 8 -18 32 -23 16 -4 91 -20 168 -37 115 -25 330 -72
395 -85 8 -2 92 -20 185 -39 94 -20 213 -46 265 -57 52 -11 113 -24 135 -29
22 -5 117 -26 210 -45 94 -19 197 -41 230 -49 178 -41 243 -50 267 -37 27 15
246 350 252 386 3 17 -9 46 -43 97 -27 40 -82 126 -124 191 -42 64 -80 117
-84 118 -5 0 -17 2 -28 3 -11 1 -45 -4 -75 -11z"/>
<path d="M5275 3976 c-11 -7 -42 -49 -70 -92 -27 -44 -80 -126 -117 -183 -37
-57 -68 -112 -68 -121 0 -9 35 -70 78 -136 43 -65 96 -147 117 -182 21 -35 47
-68 58 -74 19 -10 84 -7 137 7 14 3 36 8 49 11 14 3 221 47 460 99 240 52 447
96 461 99 14 3 57 12 95 20 87 20 253 56 281 62 134 27 399 86 403 89 9 10 -8
16 -100 36 -52 11 -101 22 -109 24 -8 2 -51 11 -95 20 -44 9 -89 19 -100 21
-11 3 -40 9 -65 14 -25 5 -54 11 -65 14 -11 3 -74 16 -140 30 -66 14 -160 35
-210 45 -324 70 -383 83 -410 87 -16 3 -43 9 -60 14 -16 5 -43 12 -60 15 -35
6 -60 11 -95 19 -14 3 -36 8 -50 10 -34 6 -157 33 -250 55 -57 13 -52 13 -75
-3z"/>
<path d="M3580 2152 c-8 -3 -60 -34 -115 -70 -110 -72 -185 -119 -228 -146
-56 -35 -56 -65 3 -311 6 -22 12 -51 14 -65 2 -14 9 -47 16 -75 6 -27 24 -111
40 -185 16 -74 41 -189 55 -255 66 -305 86 -402 91 -425 2 -14 11 -54 19 -90
43 -192 67 -308 71 -335 3 -16 9 -43 14 -60 5 -16 12 -49 15 -72 12 -79 28
-60 51 62 4 22 8 45 10 50 19 84 120 551 130 605 3 14 21 97 41 185 19 88 36
167 38 175 9 46 63 300 70 330 2 8 13 60 25 115 12 55 23 107 25 115 30 138
37 180 32 194 -4 9 -32 32 -64 52 -32 21 -114 74 -183 119 -137 89 -148 94
-170 87z"/>
</g>
</svg>
